<svg xmlns="http://www.w3.org/2000/svg" viewBox="0 0 640 512"><!--! Font Awesome Pro 6.4.2 by @fontawesome - https://fontawesome.com License - https://fontawesome.com/license (Commercial License) Copyright 2023 Fonticons, Inc.--><path fill="#fff" d="M39 5A24 24 0 0 0 9 43l592 464a24 24 0 0 0 30-38L472 345c15-26 24-57 24-89v-40a24 24 0 1 0-48 0v40c0 21-5 41-14 59l-18-14V96a96 96 0 0 0-192 0v54L39 5zm305 425c20-2 40-9 57-18l-43-34a128 128 0 0 1-166-122v-9l-47-37-1 6v40c0 89 66 163 152 174v34h-48a24 24 0 1 0 0 48h144a24 24 0 1 0 0-48h-48v-34"/></svg>